<svg width="50" height="50" viewBox="0 0 50 50" fill="none" xmlns="http://www.w3.org/2000/svg">
<path d="M37.3188 10.4781L25 22.7969L12.6813 10.4781C12.385 10.207 11.9955 10.0607 11.594 10.0696C11.1925 10.0784 10.8099 10.2419 10.5259 10.5259C10.2419 10.8099 10.0785 11.1925 10.0696 11.594C10.0607 11.9955 10.207 12.385 10.4782 12.6813L22.7907 25L10.475 37.3156C10.3246 37.459 10.2043 37.6311 10.1213 37.8216C10.0382 38.0121 9.99415 38.2174 9.99157 38.4252C9.989 38.633 10.028 38.8393 10.1063 39.0318C10.1846 39.2243 10.3005 39.3993 10.4474 39.5464C10.5943 39.6934 10.7691 39.8097 10.9615 39.8882C11.1539 39.9668 11.3601 40.0061 11.5679 40.0038C11.7758 40.0015 11.981 39.9577 12.1717 39.8749C12.3624 39.7922 12.5346 39.6722 12.6782 39.5219L25 27.2063L37.3188 39.525C37.6151 39.7961 38.0045 39.9425 38.406 39.9336C38.8076 39.9247 39.1902 39.7612 39.4741 39.4773C39.7581 39.1933 39.9216 38.8107 39.9305 38.4092C39.9394 38.0076 39.793 37.6182 39.5219 37.3219L27.2032 25.0031L39.5219 12.6813C39.6724 12.5379 39.7926 12.3659 39.8757 12.1753C39.9587 11.9848 40.0028 11.7796 40.0054 11.5717C40.0079 11.3639 39.9689 11.1577 39.8907 10.9651C39.8124 10.7726 39.6964 10.5976 39.5495 10.4506C39.4027 10.3035 39.2279 10.1873 39.0355 10.1087C38.843 10.0301 38.6368 9.99086 38.429 9.99314C38.2212 9.99542 38.0159 10.0392 37.8252 10.122C37.6346 10.2047 37.4624 10.3248 37.3188 10.475V10.4781Z" fill="white"/>
</svg>
