<svg width="50" height="50" viewBox="0 0 50 50" fill="none" xmlns="http://www.w3.org/2000/svg">
<path d="M15.625 21.875C17.3509 21.875 18.75 20.4759 18.75 18.75C18.75 17.0241 17.3509 15.625 15.625 15.625C13.8991 15.625 12.5 17.0241 12.5 18.75C12.5 20.4759 13.8991 21.875 15.625 21.875Z" fill="white"/>
<path d="M25 17.1875C26.7259 17.1875 28.125 15.7884 28.125 14.0625C28.125 12.3366 26.7259 10.9375 25 10.9375C23.2741 10.9375 21.875 12.3366 21.875 14.0625C21.875 15.7884 23.2741 17.1875 25 17.1875Z" fill="white"/>
<path d="M34.375 21.875C36.1009 21.875 37.5 20.4759 37.5 18.75C37.5 17.0241 36.1009 15.625 34.375 15.625C32.6491 15.625 31.25 17.0241 31.25 18.75C31.25 20.4759 32.6491 21.875 34.375 21.875Z" fill="white"/>
<path d="M35.9375 31.25C37.6634 31.25 39.0625 29.8509 39.0625 28.125C39.0625 26.3991 37.6634 25 35.9375 25C34.2116 25 32.8125 26.3991 32.8125 28.125C32.8125 29.8509 34.2116 31.25 35.9375 31.25Z" fill="white"/>
<path d="M29.6875 39.0625C31.4134 39.0625 32.8125 37.6634 32.8125 35.9375C32.8125 34.2116 31.4134 32.8125 29.6875 32.8125C27.9616 32.8125 26.5625 34.2116 26.5625 35.9375C26.5625 37.6634 27.9616 39.0625 29.6875 39.0625Z" fill="white"/>
<path d="M25.8438 3.12504C22.9009 3.01145 19.9654 3.49327 17.2132 4.54161C14.4611 5.58996 11.9489 7.18325 9.82742 9.22596C7.70592 11.2687 6.01875 13.7187 4.86704 16.4293C3.71533 19.1398 3.12281 22.055 3.12501 25C3.12493 26.1584 3.39203 27.3011 3.90555 28.3394C4.41906 29.3776 5.16514 30.2835 6.08578 30.9864C7.00641 31.6893 8.07678 32.1705 9.21365 32.3923C10.3505 32.6142 11.5232 32.5709 12.6406 32.2657L14.3906 31.7813C15.0868 31.5913 15.8174 31.5645 16.5256 31.7032C17.2338 31.8418 17.9004 32.1421 18.4735 32.5806C19.0466 33.0192 19.5108 33.5841 19.8297 34.2314C20.1487 34.8787 20.3139 35.5909 20.3125 36.3125V42.1875C20.3125 43.4307 20.8064 44.623 21.6854 45.5021C22.5645 46.3812 23.7568 46.875 25 46.875C27.9451 46.8772 30.8603 46.2847 33.5708 45.133C36.2813 43.9813 38.7314 42.2941 40.7741 40.1726C42.8168 38.0511 44.4101 35.539 45.4584 32.7868C46.5068 30.0347 46.9886 27.0992 46.875 24.1563C46.6483 18.6511 44.3597 13.4324 40.4637 9.53637C36.5676 5.64031 31.349 3.35175 25.8438 3.12504V3.12504ZM38.5156 37.9844C36.771 39.811 34.6733 41.264 32.3499 42.2552C30.0265 43.2463 27.5259 43.7549 25 43.75C24.5856 43.75 24.1882 43.5854 23.8952 43.2924C23.6021 42.9994 23.4375 42.6019 23.4375 42.1875V36.3125C23.4375 34.2405 22.6144 32.2534 21.1493 30.7883C19.6841 29.3231 17.697 28.5 15.625 28.5C14.9229 28.5013 14.2241 28.5959 13.5469 28.7813L11.7969 29.2657C11.1433 29.4408 10.4581 29.4631 9.79444 29.3308C9.13082 29.1984 8.5066 28.915 7.97018 28.5025C7.43377 28.09 6.99957 27.5594 6.70125 26.9521C6.40294 26.3447 6.24854 25.6767 6.25001 25C6.24807 22.4747 6.75628 19.975 7.74414 17.651C8.73201 15.3269 10.1792 13.2263 11.9988 11.4752C13.8184 9.72419 15.973 8.35876 18.3333 7.46087C20.6936 6.56298 23.211 6.15113 25.7344 6.25004C30.4331 6.49477 34.8746 8.4714 38.2016 11.7984C41.5286 15.1254 43.5053 19.5669 43.75 24.2657C43.8576 26.7906 43.4488 29.311 42.5488 31.6725C41.6488 34.0341 40.2764 36.1871 38.5156 38V37.9844Z" fill="white"/>
</svg>
