<svg width="25" height="25" viewBox="0 0 25 25" fill="none" xmlns="http://www.w3.org/2000/svg">
<path d="M21.2344 2.99897C20.9442 2.70874 20.5996 2.4785 20.2205 2.32142C19.8413 2.16434 19.4349 2.0835 19.0245 2.0835C18.614 2.0835 18.2076 2.16434 17.8285 2.32142C17.4493 2.4785 17.1048 2.70874 16.8146 2.99897L14.6042 5.20835L13.8677 4.47085C13.7709 4.37414 13.656 4.29743 13.5296 4.24512C13.4032 4.1928 13.2677 4.1659 13.1309 4.16595C12.994 4.166 12.8586 4.193 12.7322 4.2454C12.6058 4.2978 12.491 4.37459 12.3943 4.47137C12.2975 4.56815 12.2208 4.68303 12.1685 4.80946C12.1162 4.93588 12.0893 5.07138 12.0894 5.2082C12.0894 5.34502 12.1164 5.48049 12.1688 5.60688C12.2212 5.73327 12.298 5.84809 12.3948 5.94481L18.2875 11.8365C18.4847 12.0217 18.7462 12.1229 19.0167 12.1187C19.2872 12.1145 19.5455 12.0052 19.7369 11.814C19.9282 11.6227 20.0377 11.3645 20.0421 11.094C20.0465 10.8235 19.9455 10.5619 19.7604 10.3646L19.0239 9.62814L21.2344 7.41772C21.8202 6.8317 22.1493 6.03699 22.1493 5.20835C22.1493 4.37971 21.8202 3.585 21.2344 2.99897Z" fill="white"/>
<path fill-rule="evenodd" clip-rule="evenodd" d="M12.4271 7.38642L4.32504 15.4895C3.86784 15.9465 3.56353 16.534 3.45403 17.171C3.34452 17.8081 3.4352 18.4634 3.71358 19.0468L2.08337 20.677L3.55629 22.151L5.1865 20.5198C5.76979 20.7983 6.42508 20.8891 7.06214 20.7798C7.6992 20.6705 8.28671 20.3664 8.74379 19.9093L16.8459 11.8073L12.4271 7.38538V7.38642ZM13.9 11.8062L12.4271 10.3333L5.79796 16.9625C5.60821 17.1589 5.50322 17.422 5.50559 17.6952C5.50796 17.9683 5.61751 18.2296 5.81065 18.4227C6.00378 18.6158 6.26504 18.7254 6.53816 18.7277C6.81129 18.7301 7.07441 18.6251 7.27087 18.4354L13.9 11.8062Z" fill="white"/>
</svg>
