<svg width="55" height="50" viewBox="0 0 55 50" fill="none" xmlns="http://www.w3.org/2000/svg">
<path d="M33.068 32.7423L21.277 21.0674L5.55666 36.633L11.4535 42.469C13.0169 44.0165 15.137 44.8859 17.3476 44.8859C19.5583 44.8859 21.6784 44.0165 23.2417 42.469L33.068 32.7423ZM29.0552 44.4969H36.6028C37.3398 44.4969 38.0466 44.7868 38.5678 45.3028C39.0889 45.8188 39.3817 46.5187 39.3817 47.2485C39.3817 47.9782 39.0889 48.6781 38.5678 49.1941C38.0466 49.7101 37.3398 50 36.6028 50H6.03464C5.3301 49.9994 4.65208 49.7339 4.13777 49.2571C3.62346 48.7803 3.31124 48.1279 3.26428 47.4318C3.21732 46.7358 3.43913 46.0481 3.88483 45.5078C4.33052 44.9675 4.96684 44.615 5.66504 44.5217L1.62726 40.5237C0.585327 39.4917 0 38.0922 0 36.633C0 35.1737 0.585327 33.7743 1.62726 32.7423L33.068 1.61123C34.1103 0.579561 35.5237 0 36.9974 0C38.4712 0 39.8846 0.579561 40.9268 1.61123L52.7206 13.2861C53.7625 14.318 54.3478 15.7175 54.3478 17.1768C54.3478 18.636 53.7625 20.0355 52.7206 21.0674L29.0552 44.4969Z" fill="white"/>
</svg>
