<svg width="236" height="69" viewBox="0 0 236 69" fill="none" xmlns="http://www.w3.org/2000/svg">
<g clip-path="url(#clip0_2_125)">
<path d="M76.0996 16.4053H68.8818V13.4922H76.0996C77.4974 13.4922 78.6292 13.2695 79.4951 12.8242C80.361 12.3789 80.9919 11.7604 81.3877 10.9688C81.7959 10.1771 82 9.27409 82 8.25977C82 7.33203 81.7959 6.45996 81.3877 5.64355C80.9919 4.82715 80.361 4.17155 79.4951 3.67676C78.6292 3.1696 77.4974 2.91602 76.0996 2.91602H69.7168V27H66.1357V-0.015625H76.0996C78.1406 -0.015625 79.8662 0.336914 81.2764 1.04199C82.6865 1.74707 83.7565 2.72428 84.4863 3.97363C85.2161 5.21061 85.5811 6.62695 85.5811 8.22266C85.5811 9.95443 85.2161 11.4326 84.4863 12.6572C83.7565 13.8818 82.6865 14.8158 81.2764 15.459C79.8662 16.0898 78.1406 16.4053 76.0996 16.4053ZM97.5488 2.37793L88.6055 27H84.9502L95.248 -0.015625H97.6045L97.5488 2.37793ZM105.045 27L96.083 2.37793L96.0273 -0.015625H98.3838L108.719 27H105.045ZM104.581 16.999V19.9307H89.4033V16.999H104.581ZM116.178 -0.015625V27H112.597V-0.015625H116.178ZM143.472 -0.015625V27H139.872L126.271 6.16309V27H122.69V-0.015625H126.271L139.928 20.877V-0.015625H143.472ZM159.243 -0.015625V27H155.718V-0.015625H159.243ZM167.927 -0.015625V2.91602H147.053V-0.015625H167.927ZM76.0996 51.4053H68.8818V48.4922H76.0996C77.4974 48.4922 78.6292 48.2695 79.4951 47.8242C80.361 47.3789 80.9919 46.7604 81.3877 45.9688C81.7959 45.1771 82 44.2741 82 43.2598C82 42.332 81.7959 41.46 81.3877 40.6436C80.9919 39.8271 80.361 39.1715 79.4951 38.6768C78.6292 38.1696 77.4974 37.916 76.0996 37.916H69.7168V62H66.1357V34.9844H76.0996C78.1406 34.9844 79.8662 35.3369 81.2764 36.042C82.6865 36.7471 83.7565 37.7243 84.4863 38.9736C85.2161 40.2106 85.5811 41.627 85.5811 43.2227C85.5811 44.9544 85.2161 46.4326 84.4863 47.6572C83.7565 48.8818 82.6865 49.8158 81.2764 50.459C79.8662 51.0898 78.1406 51.4053 76.0996 51.4053ZM93.9492 34.9844V62H90.3682V34.9844H93.9492ZM116.771 53.4092H120.334C120.148 55.1162 119.66 56.6439 118.868 57.9922C118.076 59.3405 116.957 60.4105 115.51 61.2021C114.062 61.9814 112.257 62.3711 110.092 62.3711C108.508 62.3711 107.067 62.0742 105.769 61.4805C104.482 60.8867 103.375 60.0456 102.447 58.957C101.52 57.8561 100.802 56.5387 100.295 55.0049C99.8001 53.4587 99.5527 51.7393 99.5527 49.8467V47.1562C99.5527 45.2637 99.8001 43.5505 100.295 42.0166C100.802 40.4704 101.526 39.1468 102.466 38.0459C103.418 36.945 104.562 36.0977 105.898 35.5039C107.234 34.9102 108.737 34.6133 110.407 34.6133C112.448 34.6133 114.174 34.9967 115.584 35.7637C116.994 36.5306 118.089 37.5944 118.868 38.9551C119.66 40.3034 120.148 41.8682 120.334 43.6494H116.771C116.598 42.3877 116.277 41.3053 115.807 40.4023C115.337 39.487 114.669 38.7819 113.803 38.2871C112.937 37.7923 111.805 37.5449 110.407 37.5449C109.207 37.5449 108.15 37.7738 107.234 38.2314C106.331 38.6891 105.571 39.3385 104.952 40.1797C104.346 41.0208 103.888 42.029 103.579 43.2041C103.27 44.3792 103.115 45.6842 103.115 47.1191V49.8467C103.115 51.1702 103.251 52.4134 103.523 53.5762C103.808 54.7389 104.235 55.7594 104.804 56.6377C105.373 57.516 106.096 58.2087 106.975 58.7158C107.853 59.2106 108.892 59.458 110.092 59.458C111.613 59.458 112.826 59.2168 113.729 58.7344C114.632 58.252 115.312 57.5592 115.77 56.6562C116.24 55.7533 116.574 54.6709 116.771 53.4092ZM134.64 34.9844V62H131.114V34.9844H134.64ZM143.323 34.9844V37.916H122.449V34.9844H143.323ZM162.787 34.9844H166.35V53.2607C166.35 55.2894 165.898 56.9779 164.995 58.3262C164.092 59.6745 162.892 60.6888 161.396 61.3691C159.911 62.0371 158.297 62.3711 156.553 62.3711C154.722 62.3711 153.064 62.0371 151.58 61.3691C150.108 60.6888 148.939 59.6745 148.073 58.3262C147.22 56.9779 146.793 55.2894 146.793 53.2607V34.9844H150.337V53.2607C150.337 54.6709 150.597 55.8337 151.116 56.749C151.636 57.6644 152.359 58.3447 153.287 58.79C154.227 59.2354 155.316 59.458 156.553 59.458C157.802 59.458 158.891 59.2354 159.818 58.79C160.758 58.3447 161.488 57.6644 162.008 56.749C162.527 55.8337 162.787 54.6709 162.787 53.2607V34.9844ZM171.972 34.9844H180.915C182.944 34.9844 184.657 35.2936 186.055 35.9121C187.465 36.5306 188.535 37.446 189.265 38.6582C190.007 39.8581 190.378 41.3363 190.378 43.0928C190.378 44.3298 190.124 45.4616 189.617 46.4883C189.122 47.5026 188.405 48.3685 187.465 49.0859C186.537 49.791 185.424 50.3167 184.125 50.6631L183.123 51.0527H174.718L174.681 48.1396H181.026C182.313 48.1396 183.383 47.917 184.236 47.4717C185.09 47.014 185.733 46.4017 186.166 45.6348C186.599 44.8678 186.815 44.0205 186.815 43.0928C186.815 42.0537 186.611 41.1445 186.203 40.3652C185.795 39.5859 185.152 38.986 184.273 38.5654C183.408 38.1325 182.288 37.916 180.915 37.916H175.553V62H171.972V34.9844ZM187.762 62L181.193 49.7539L184.923 49.7354L191.584 61.7773V62H187.762ZM212.551 59.0869V62H198.245V59.0869H212.551ZM198.969 34.9844V62H195.388V34.9844H198.969ZM210.658 46.5996V49.5127H198.245V46.5996H210.658ZM212.365 34.9844V37.916H198.245V34.9844H212.365ZM231.384 55.1719C231.384 54.541 231.285 53.9844 231.087 53.502C230.901 53.0072 230.567 52.5618 230.085 52.166C229.615 51.7702 228.959 51.3929 228.118 51.0342C227.289 50.6755 226.238 50.3105 224.964 49.9395C223.628 49.5436 222.422 49.1045 221.346 48.6221C220.27 48.1273 219.348 47.5645 218.581 46.9336C217.814 46.3027 217.227 45.5791 216.818 44.7627C216.41 43.9463 216.206 43.0124 216.206 41.9609C216.206 40.9095 216.423 39.9385 216.855 39.0479C217.288 38.1572 217.907 37.3841 218.711 36.7285C219.527 36.0605 220.498 35.541 221.624 35.1699C222.75 34.7988 224.005 34.6133 225.391 34.6133C227.419 34.6133 229.139 35.0029 230.549 35.7822C231.971 36.5492 233.054 37.5573 233.796 38.8066C234.538 40.0436 234.909 41.3672 234.909 42.7773H231.347C231.347 41.763 231.13 40.8662 230.697 40.0869C230.264 39.2952 229.609 38.6768 228.73 38.2314C227.852 37.7738 226.739 37.5449 225.391 37.5449C224.117 37.5449 223.065 37.7367 222.236 38.1201C221.408 38.5036 220.789 39.0231 220.381 39.6787C219.985 40.3343 219.787 41.0827 219.787 41.9238C219.787 42.4928 219.905 43.0124 220.14 43.4824C220.387 43.9401 220.764 44.3669 221.271 44.7627C221.791 45.1585 222.447 45.5234 223.238 45.8574C224.042 46.1914 225.001 46.513 226.114 46.8223C227.648 47.2552 228.972 47.7376 230.085 48.2695C231.198 48.8014 232.114 49.4014 232.831 50.0693C233.561 50.7249 234.099 51.4733 234.445 52.3145C234.804 53.1432 234.983 54.0833 234.983 55.1348C234.983 56.2357 234.761 57.2314 234.315 58.1221C233.87 59.0127 233.233 59.7734 232.404 60.4043C231.576 61.0352 230.58 61.5238 229.417 61.8701C228.267 62.2041 226.98 62.3711 225.558 62.3711C224.308 62.3711 223.077 62.1979 221.865 61.8516C220.665 61.5052 219.571 60.9857 218.581 60.293C217.604 59.6003 216.818 58.7467 216.225 57.7324C215.643 56.7057 215.353 55.5182 215.353 54.1699H218.915C218.915 55.0977 219.094 55.8955 219.453 56.5635C219.812 57.2191 220.3 57.7633 220.919 58.1963C221.55 58.6292 222.261 58.9508 223.053 59.1611C223.857 59.359 224.692 59.458 225.558 59.458C226.807 59.458 227.865 59.2848 228.73 58.9385C229.596 58.5921 230.252 58.0973 230.697 57.4541C231.155 56.8109 231.384 56.0501 231.384 55.1719Z" fill="white"/>
<rect x="2" y="2" width="43.1456" height="48.9581" stroke="white" stroke-width="4"/>
<rect x="22.4426" y="51.6815" width="2.2604" height="14.5312" stroke="white" stroke-width="2.2604"/>
<rect x="-0.159206" y="1.81973" width="2.58332" height="18.654" transform="matrix(-0.766044 0.642788 0.642788 0.766044 24.1909 50.2568)" stroke="white" stroke-width="2.58332"/>
<rect x="-1.81973" y="0.159206" width="2.58332" height="18.654" transform="matrix(-0.766044 -0.642788 -0.642788 0.766044 22.8934 52.0939)" stroke="white" stroke-width="2.58332"/>
<path d="M18.1578 8.33194L21.9583 5.8125C15.8229 8.71873 6.975 22.3457 10.3333 23.8957C14.5312 25.8332 38.104 13.8854 40.3644 20.6666C42.0866 25.8332 22.9064 35.8623 11.6377 44.2394M11.6377 44.2394C10.2319 45.2845 8.92007 46.2621 7.75 47.1456L11.6377 44.2394Z" stroke="url(#paint0_linear_2_125)" stroke-width="8" stroke-linejoin="round"/>
</g>
<defs>
<linearGradient id="paint0_linear_2_125" x1="23.4385" y1="5.8125" x2="23.4385" y2="47.1456" gradientUnits="userSpaceOnUse">
<stop stop-color="#F7931D"/>
<stop offset="0.576042" stop-color="#E34D3E"/>
<stop offset="1" stop-color="#D41559"/>
</linearGradient>
<clipPath id="clip0_2_125">
<rect width="236" height="69" fill="white"/>
</clipPath>
</defs>
</svg>
