<svg width="50" height="50" viewBox="0 0 50 50" fill="none" xmlns="http://www.w3.org/2000/svg">
<path d="M3.12504 10.9375C3.12504 9.6943 3.6189 8.50201 4.49798 7.62294C5.37705 6.74386 6.56934 6.25 7.81254 6.25H16.45C19.4438 6.25 21.95 8 23.6719 9.95C24.9532 11.4 26.5 12.5 28.125 12.5H42.1875C43.4307 12.5 44.623 12.9939 45.5021 13.8729C46.3812 14.752 46.875 15.9443 46.875 17.1875V19.1875C48.6563 20.0156 49.8125 21.925 49.55 24.0187L47.55 40.0312C47.3138 41.922 46.3946 43.6612 44.9656 44.9216C43.5365 46.1821 41.6961 46.8767 39.7907 46.875H10.2063C8.3019 46.8752 6.46301 46.1798 5.03528 44.9196C3.60755 43.6593 2.68931 41.9209 2.45316 40.0312L0.453164 24.0187C0.329955 23.0343 0.522256 22.0362 1.00239 21.168C1.48252 20.2999 2.22573 19.6064 3.12504 19.1875V10.9375ZM6.25004 18.75H43.75V17.1875C43.75 16.7731 43.5854 16.3757 43.2924 16.0826C42.9994 15.7896 42.6019 15.625 42.1875 15.625H28.125C25.1125 15.625 22.7813 13.6594 21.3313 12.0187C19.9188 10.4187 18.1875 9.375 16.45 9.375H7.81254C7.39814 9.375 7.00071 9.53962 6.70768 9.83265C6.41466 10.1257 6.25004 10.5231 6.25004 10.9375V18.75ZM5.10316 21.875C4.88165 21.8751 4.66269 21.9222 4.46079 22.0134C4.25889 22.1045 4.07868 22.2375 3.93211 22.4036C3.78553 22.5697 3.67594 22.765 3.61061 22.9767C3.54528 23.1883 3.5257 23.4114 3.55316 23.6312L5.55316 39.6437C5.69488 40.7778 6.246 41.821 7.1029 42.5772C7.9598 43.3334 9.06344 43.7504 10.2063 43.75H39.7938C40.9366 43.7504 42.0403 43.3334 42.8972 42.5772C43.7541 41.821 44.3052 40.7778 44.4469 39.6437L46.4469 23.6312C46.4744 23.4114 46.4548 23.1883 46.3895 22.9767C46.3241 22.765 46.2146 22.5697 46.068 22.4036C45.9214 22.2375 45.7412 22.1045 45.5393 22.0134C45.3374 21.9222 45.1184 21.8751 44.8969 21.875H5.10316Z" fill="white"/>
</svg>
