<svg width="50" height="50" viewBox="0 0 50 50" fill="none" xmlns="http://www.w3.org/2000/svg">
<g clip-path="url(#clip0_2_138)">
<path d="M5.55555 50H44.4444C45.9178 50 47.3309 49.4147 48.3728 48.3728C49.4146 47.3309 50 45.9179 50 44.4444V13.8889C50.0021 13.5233 49.932 13.161 49.7938 12.8225C49.6555 12.4841 49.4518 12.1763 49.1944 11.9167L38.0833 0.805601C37.8237 0.548153 37.5159 0.344472 37.1775 0.206237C36.839 0.0680024 36.4767 -0.00206716 36.1111 4.64285e-05H5.55555C4.08213 4.64285e-05 2.66905 0.585361 1.62718 1.62723C0.585315 2.6691 0 4.08217 0 5.5556V44.4444C0 45.9179 0.585315 47.3309 1.62718 48.3728C2.66905 49.4147 4.08213 50 5.55555 50ZM33.3333 44.4444H16.6667V30.5556H33.3333V44.4444ZM27.7778 11.1111H22.2222V5.5556H27.7778V11.1111ZM5.55555 5.5556H11.1111V16.6667H33.3333V5.5556H34.9722L44.4444 15.0278V44.4444H38.8889V30.5556C38.8889 29.0821 38.3035 27.6691 37.2617 26.6272C36.2198 25.5853 34.8067 25 33.3333 25H16.6667C15.1932 25 13.7802 25.5853 12.7383 26.6272C11.6964 27.6691 11.1111 29.0821 11.1111 30.5556V44.4444H5.55555V5.5556Z" fill="white"/>
</g>
<defs>
<clipPath id="clip0_2_138">
<rect width="50" height="50" fill="white"/>
</clipPath>
</defs>
</svg>
