<svg width="50" height="50" viewBox="0 0 50 50" fill="none" xmlns="http://www.w3.org/2000/svg">
<path d="M45.9447 16.357L42.8647 20.993C44.3501 23.9577 45.0773 27.2449 44.9811 30.56C44.885 33.8751 43.9685 37.1146 42.3138 39.9881H7.60726C5.45667 36.2545 4.56554 31.9268 5.06597 27.6465C5.5664 23.3662 7.43175 19.3612 10.3855 16.2253C13.3392 13.0893 17.2241 10.9894 21.4642 10.2367C25.7043 9.4841 30.0739 10.1188 33.9251 12.0468L38.5577 8.96449C33.8412 5.93785 28.2467 4.58161 22.669 5.1127C17.0913 5.64378 11.8528 8.03152 7.79129 11.894C3.72979 15.7564 1.08003 20.8704 0.265841 26.4179C-0.548347 31.9654 0.520088 37.6259 3.30024 42.494C3.73723 43.2515 4.3647 43.8814 5.12029 44.321C5.87587 44.7606 6.73327 44.9947 7.60726 45H42.2888C43.1713 45.0035 44.039 44.7735 44.8041 44.3335C45.5693 43.8934 46.2046 43.2589 46.6459 42.494C48.9531 38.4943 50.1109 33.9344 49.9916 29.3176C49.8723 24.7009 48.4805 20.207 45.9698 16.332L45.9447 16.357Z" fill="white"/>
<path d="M22.0625 32.1042C22.4495 32.4916 22.909 32.799 23.4148 33.0087C23.9206 33.2183 24.4628 33.3263 25.0104 33.3263C25.558 33.3263 26.1002 33.2183 26.606 33.0087C27.1118 32.799 27.5713 32.4916 27.9583 32.1042L39.75 14.4167L22.0625 26.2084C21.6751 26.5954 21.3678 27.0549 21.1581 27.5607C20.9484 28.0666 20.8405 28.6088 20.8405 29.1563C20.8405 29.7039 20.9484 30.2461 21.1581 30.7519C21.3678 31.2577 21.6751 31.7173 22.0625 32.1042Z" fill="white"/>
</svg>
